<?xml version="1.0" encoding="UTF-8"?>
<svg width="2045px" height="400px" viewBox="0 0 2045 400" version="1.1" xmlns="http://www.w3.org/2000/svg" xmlns:xlink="http://www.w3.org/1999/xlink">
    <!-- Generator: Sketch 52 (66869) - http://www.bohemiancoding.com/sketch -->
    <title>Group 3 Copy 2</title>
    <desc>Created with Sketch.</desc>
    <g id="Page-1" stroke="none" stroke-width="1" fill="none" fill-rule="evenodd">
        <g id="Group-3-Copy-2" transform="translate(1022.500000, 200.000000) scale(-1, -1) translate(-1022.500000, -200.000000) ">
            <polygon id="Rectangle" fill="#FFE7A5" points="223 -1.98951966e-13 1198 -1.98951966e-13 1198 400 223 400"></polygon>
            <path d="M0.136734522,0 C341.748106,1.18423789e-13 571.903149,1.77635684e-13 690.601866,1.77635684e-13 C706.540394,1.77635684e-13 734.223106,1.18423789e-13 773.65,0 L577.722116,400 L0.136734522,400 L0.136734522,0 Z" id="Rectangle-Copy" fill="#FCD7FF"></path>
            <path d="M577.712373,1.53477231e-12 C1360.35096,1.53662268e-12 1811.01962,1.53754787e-12 1929.71833,1.53754787e-12 C1945.65686,1.53754787e-12 1983.93187,1.53662268e-12 2044.54337,1.53477231e-12 L1518.32137,400 L577.712373,400 L577.712373,1.53477231e-12 Z" id="Rectangle-Copy" fill="#AAB9F0" transform="translate(1311.127871, 200.000000) scale(-1, -1) translate(-1311.127871, -200.000000) "></path>
        </g>
    </g>
</svg>