<?xml version="1.0" encoding="UTF-8"?>
<svg width="1242px" height="400px" viewBox="0 0 1242 400" version="1.1" xmlns="http://www.w3.org/2000/svg" xmlns:xlink="http://www.w3.org/1999/xlink">
    <!-- Generator: Sketch 52 (66869) - http://www.bohemiancoding.com/sketch -->
    <title>Group 2 Copy 2</title>
    <desc>Created with Sketch.</desc>
    <g id="Page-1" stroke="none" stroke-width="1" fill="none" fill-rule="evenodd">
        <g id="Group-2-Copy-2">
            <path d="M0,-2.84217094e-13 C315.96795,-2.84217094e-13 533.301284,-2.84217094e-13 652,-2.84217094e-13 C667.938529,-2.84217094e-13 730.271862,-2.84217094e-13 839,-2.84217094e-13 L539.12025,400 L0,400 L0,-2.84217094e-13 Z" id="Rectangle-Copy-2" fill="#FFA1A1" transform="translate(419.500000, 200.000000) scale(1, -1) translate(-419.500000, -200.000000) "></path>
            <path d="M536,8.52651283e-14 C811.417926,8.52651283e-14 1008.47625,8.52651283e-14 1127.17496,8.52651283e-14 C1143.11349,8.52651283e-14 1181.3885,8.52651283e-14 1242,8.52651283e-14 L939,400 L536,400 L536,8.52651283e-14 Z" id="Rectangle-Copy-3" fill="#C7EAFE" transform="translate(889.000000, 200.000000) scale(-1, 1) translate(-889.000000, -200.000000) "></path>
        </g>
    </g>
</svg>