<?xml version="1.0" encoding="UTF-8"?>
<svg width="1820px" height="400px" viewBox="0 0 1820 400" version="1.1" xmlns="http://www.w3.org/2000/svg" xmlns:xlink="http://www.w3.org/1999/xlink">
    <!-- Generator: Sketch 52 (66869) - http://www.bohemiancoding.com/sketch -->
    <title>Group 2 Copy 2</title>
    <desc>Created with Sketch.</desc>
    <g id="Page-1" stroke="none" stroke-width="1" fill="none" fill-rule="evenodd">
        <g id="Group-2-Copy-2">
            <path d="M0.737626958,-4.54747351e-13 C573.547159,-4.54747351e-13 919.301284,-4.54747351e-13 1038,-4.54747351e-13 C1053.93853,-4.54747351e-13 1116.27186,-4.54747351e-13 1225,-4.54747351e-13 L925.12025,400 L0.737626958,400 L0.737626958,-4.54747351e-13 Z" id="Rectangle-Copy-2" fill="#E74CFF" transform="translate(612.868813, 200.000000) scale(1, -1) translate(-612.868813, -200.000000) "></path>
            <path d="M806,0 C1286.75126,0 1586.47625,0 1705.17496,0 C1721.11349,0 1759.3885,0 1820,0 L1517,400 L806,400 L806,0 Z" id="Rectangle-Copy-3" fill="#FFA1A1" transform="translate(1313.000000, 200.000000) scale(-1, 1) translate(-1313.000000, -200.000000) "></path>
        </g>
    </g>
</svg>